<svg xmlns="http://www.w3.org/2000/svg" class="svg-inline--fa fa-discord fa-w-14 fa-2x" role="img" aria-hidden="true" viewBox="0 0 448 512" data-prefix="fab" data-icon="discord"><path class="" fill="white" d="M 297.216 243.2 c 0 15.616 -11.52 28.416 -26.112 28.416 c -14.336 0 -26.112 -12.8 -26.112 -28.416 s 11.52 -28.416 26.112 -28.416 c 14.592 0 26.112 12.8 26.112 28.416 Z m -119.552 -28.416 c -14.592 0 -26.112 12.8 -26.112 28.416 s 11.776 28.416 26.112 28.416 c 14.592 0 26.112 -12.8 26.112 -28.416 c 0.256 -15.616 -11.52 -28.416 -26.112 -28.416 Z M 448 52.736 V 512 c -64.494 -56.994 -43.868 -38.128 -118.784 -107.776 l 13.568 47.36 H 52.48 C 23.552 451.584 0 428.032 0 398.848 V 52.736 C 0 23.552 23.552 0 52.48 0 h 343.04 C 424.448 0 448 23.552 448 52.736 Z m -72.96 242.688 c 0 -82.432 -36.864 -149.248 -36.864 -149.248 c -36.864 -27.648 -71.936 -26.88 -71.936 -26.88 l -3.584 4.096 c 43.52 13.312 63.744 32.512 63.744 32.512 c -60.811 -33.329 -132.244 -33.335 -191.232 -7.424 c -9.472 4.352 -15.104 7.424 -15.104 7.424 s 21.248 -20.224 67.328 -33.536 l -2.56 -3.072 s -35.072 -0.768 -71.936 26.88 c 0 0 -36.864 66.816 -36.864 149.248 c 0 0 21.504 37.12 78.08 38.912 c 0 0 9.472 -11.52 17.152 -21.248 c -32.512 -9.728 -44.8 -30.208 -44.8 -30.208 c 3.766 2.636 9.976 6.053 10.496 6.4 c 43.21 24.198 104.588 32.126 159.744 8.96 c 8.96 -3.328 18.944 -8.192 29.44 -15.104 c 0 0 -12.8 20.992 -46.336 30.464 c 7.68 9.728 16.896 20.736 16.896 20.736 c 56.576 -1.792 78.336 -38.912 78.336 -38.912 Z" /></svg>